<?xml version="1.0" standalone="no"?>
<!DOCTYPE svg PUBLIC "-//W3C//DTD SVG 20010904//EN"
 "http://www.w3.org/TR/2001/REC-SVG-20010904/DTD/svg10.dtd">
<svg version="1.0" xmlns="http://www.w3.org/2000/svg"
 width="695.000000pt" height="695.000000pt" viewBox="0 0 695.000000 695.000000"
 preserveAspectRatio="xMidYMid meet">
<metadata>
Created by potrace 1.11, written by Peter Selinger 2001-2013
</metadata>
<g transform="translate(0.000000,695.000000) scale(0.100000,-0.100000)"
fill="#000000" stroke="none">
<path d="M6320 4550 l-365 -257 -3 -1127 -2 -1126 -1603 0 -1602 -1 -534 -374
-534 -375 2512 0 2511 0 0 1745 c0 1284 -3 1745 -11 1745 -8 0 -8 5 1 15 7 8
9 15 4 14 -5 -1 -173 -117 -374 -259z"/>
<path d="M785 664 c-286 -201 -524 -369 -530 -375 -5 -5 1203 -9 3218 -9
l3227 0 0 375 0 375 -2697 0 -2698 -1 -520 -365z"/>
</g>
</svg>
